# xmcd CD database file
#
# Track frame offsets:
#	150
#	14430
#	30844
#	43966
#	55240
#	74333
#	91098
#	105835
#	123357
#	137982
#
# Disc length: 2036 seconds
#
# Revision: 0
# Processed by: cddbd v1.5.1PL0 Copyright (c) Steve Scherf et al.
# Submitted via: CDex 1.51
#
DISCID=7d07f20a
DTITLE=Various Artist - New Country Hits
DYEAR=1900
DGENRE=Country
TTITLE0=I Like It, I Love It
TTITLE1=Tonight The Heartaches On Me
TTITLE2=This Kiss
TTITLE3=Chattahoochee
TTITLE4=When You Say Nothing At All
TTITLE5=You Were Mine
TTITLE6=Maybe This Time
TTITLE7=Grown Men Don't Cry
TTITLE8=Summertime Blues
TTITLE9=Can't Be Really Gone
EXTD=
EXTT0=
EXTT1=
EXTT2=
EXTT3=
EXTT4=
EXTT5=
EXTT6=
EXTT7=
EXTT8=
EXTT9=
PLAYORDER=
